<svg width="80" height="80" viewBox="0 0 80 80" fill="none" xmlns="http://www.w3.org/2000/svg">
<path opacity="0.3" d="M80 40C80 62.0914 62.0914 80 40 80C17.9086 80 0 62.0914 0 40C0 17.9086 17.9086 0 40 0C62.0914 0 80 17.9086 80 40ZM10.9071 40C10.9071 56.0675 23.9325 69.0929 40 69.0929C56.0675 69.0929 69.0929 56.0675 69.0929 40C69.0929 23.9325 56.0675 10.9071 40 10.9071C23.9325 10.9071 10.9071 23.9325 10.9071 40Z" fill="#2F2E30"/>
<circle cx="40" cy="40" r="29" fill="black"/>
<path d="M39.9834 22.5874C41.0048 22.5874 42.0044 22.7357 42.7578 23.0171V23.0181L51.0752 26.1353H51.0762C53.2957 26.962 55.0508 29.5076 55.0508 31.8667V44.2495C55.0508 45.3367 54.7066 46.5895 54.124 47.7485C53.578 48.8348 52.8406 49.8024 52.0312 50.4556L51.8682 50.5825L44.7012 55.9321L44.6953 55.937C43.4126 56.9261 41.724 57.4331 40 57.4331C38.2773 57.433 36.5849 56.9263 35.2646 55.9478H35.2637L28.0996 50.5991C27.2269 49.9484 26.4256 48.9208 25.8428 47.7593C25.2599 46.5976 24.917 45.3447 24.917 44.2661V31.8667C24.917 29.5812 26.5637 27.1204 28.6846 26.2173L28.8916 26.1353H28.8926L37.209 23.0181C37.9624 22.7365 38.9618 22.5874 39.9834 22.5874ZM40.001 24.0854C39.3021 24.0874 38.5817 24.1702 37.9883 24.3491L37.7422 24.4312L37.7412 24.4321L29.4248 27.5483H29.4238C28.5963 27.8599 27.8551 28.5225 27.3242 29.2905C26.7931 30.0589 26.4336 30.9898 26.4336 31.8833V44.2661C26.4336 45.1606 26.7442 46.1893 27.2012 47.1011C27.6009 47.8986 28.1375 48.6561 28.7393 49.187L29.001 49.4009L36.168 54.7505C37.2298 55.5444 38.6284 55.9252 40.002 55.9253C41.2901 55.9253 42.6032 55.5902 43.6436 54.895L43.8477 54.7515L43.8496 54.7505L51.0156 49.4009L51.0166 49.3999C51.7314 48.8638 52.3669 48.0049 52.8223 47.0942C53.2776 46.1836 53.584 45.1596 53.584 44.2661V31.8667C53.584 30.9807 53.2236 30.0539 52.6934 29.2866C52.1961 28.5672 51.5145 27.9379 50.752 27.5981L50.5977 27.5337L50.5928 27.5317L42.2754 24.4146L42.2666 24.4116L42.0186 24.3325C41.4217 24.162 40.7003 24.0835 40.001 24.0854Z" fill="#FAFAFA" stroke="#FAFAFA"/>
<path d="M44.4043 34.77C44.6743 34.5003 45.1158 34.4832 45.4072 34.7192L45.4639 34.77C45.734 35.0402 45.7503 35.4824 45.5137 35.7739L45.4639 35.8296L38.2969 42.9966C38.1456 43.1478 37.9578 43.2163 37.7666 43.2163C37.5995 43.2162 37.4356 43.1637 37.2959 43.0493L37.2373 42.9966L34.5537 40.313C34.2839 40.043 34.267 39.6015 34.5029 39.3101L34.5537 39.2534C34.8238 38.9833 35.2661 38.9663 35.5576 39.2026L35.6133 39.2534L37.7666 41.4067L38.1211 41.0532L44.4043 34.77Z" fill="#FAFAFA" stroke="#FAFAFA"/>
</svg>
